<svg width="40" height="40" viewBox="0 0 40 40" fill="none" xmlns="http://www.w3.org/2000/svg">
    <rect width="40" height="40" rx="20" fill="url(#paint0_linear_11_109)" />
    <path
        d="M11.299 25.596C11.731 26.928 13.044 27.778 14.445 27.778H14.5C14.6285 28.4053 14.9697 28.9691 15.4658 29.3739C15.962 29.7788 16.5826 29.9999 17.223 30C17.68 30 18.107 29.885 18.485 29.687C18.6428 29.6005 18.774 29.4728 18.8647 29.3174C18.9555 29.162 19.0022 28.9849 19 28.805V11.027C19.002 10.7979 18.9251 10.5751 18.7821 10.3961C18.6391 10.2171 18.4389 10.0927 18.215 10.044C17.7133 9.94658 17.1935 10.0172 16.736 10.245C15.992 10.601 15.556 11.396 15.556 12.223V12.278C14.9992 12.1644 14.421 12.2242 13.8993 12.4495C13.3775 12.6748 12.9375 13.0546 12.6384 13.5378C12.3393 14.021 12.1956 14.5843 12.2266 15.1517C12.2577 15.7191 12.462 16.2634 12.812 16.711C12.0281 16.8339 11.3139 17.2328 10.7982 17.8359C10.2826 18.439 9.9995 19.2065 10 20C10 21.178 10.611 22.211 11.533 22.812C11.103 23.583 10.962 24.558 11.299 25.596ZM27.188 16.711C27.538 16.2634 27.7423 15.7191 27.7734 15.1517C27.8044 14.5843 27.6607 14.021 27.3616 13.5378C27.0625 13.0546 26.6225 12.6748 26.1007 12.4495C25.579 12.2242 25.0008 12.1644 24.444 12.278V12.223C24.444 11.397 24.007 10.601 23.263 10.245C22.8059 10.0172 22.2864 9.94651 21.785 10.044C21.5612 10.0929 21.3611 10.2173 21.2181 10.3963C21.0752 10.5753 20.9982 10.798 21 11.027V28.804C21 29.169 21.192 29.516 21.516 29.686C21.894 29.885 22.32 30 22.777 30C23.4175 29.9999 24.0383 29.7786 24.5344 29.3735C25.0306 28.9685 25.3717 28.4045 25.5 27.777H25.556C26.956 27.777 28.27 26.927 28.702 25.595C29.039 24.557 28.898 23.582 28.468 22.811C28.9377 22.5076 29.3239 22.0914 29.5915 21.6004C29.8591 21.1094 29.9995 20.5592 30 20C30.0005 19.2065 29.7174 18.439 29.2018 17.8359C28.6861 17.2328 27.9719 16.8339 27.188 16.711Z"
        fill="white" />
    <defs>
        <linearGradient id="paint0_linear_11_109" x1="20" y1="20" x2="16.25" y2="65.5"
            gradientUnits="userSpaceOnUse">
            <stop stop-color="#003399" />
            <stop offset="1" stop-color="white" />
        </linearGradient>
    </defs>
</svg>