<svg width="1240" height="860" viewBox="0 0 1240 860" fill="none" xmlns="http://www.w3.org/2000/svg">
    <rect width="1240" height="860" rx="30" fill="url(#paint0_linear_54_182)" />
    <rect x="0.5" y="0.5" width="1239" height="859" rx="29.5" stroke="#003399" stroke-opacity="0.1" />
    <path d="M415.111 686.722V609.444H337.833V686.722H415.111Z" fill="#003399" fill-opacity="0.07" />
    <path d="M646.722 609.444V532.167H569.667V609.444H646.722Z" fill="#003399" fill-opacity="0.07" />
    <path d="M415.111 377.611V300.333H337.833V377.611H415.111Z" fill="#003399" fill-opacity="0.07" />
    <path d="M724 223.056V300.333H801.278V223.056H724Z" fill="#003399" fill-opacity="0.07" />
    <path d="M569.444 223.056V145.778H492.389V223.056H569.444Z" fill="#003399" fill-opacity="0.07" />
    <path d="M724 454.889V377.611H646.944V454.889H724Z" fill="#003399" fill-opacity="0.07" />
    <path d="M801.278 454.889V532.167H878.556V454.889H801.278Z" fill="#003399" fill-opacity="0.07" />
    <path d="M724 609.444L724 686.722H801.278V609.444H724Z" fill="#003399" fill-opacity="0.07" />
    <path d="M569.444 377.611V300.333H492.389V377.611H569.444Z" fill="#003399" fill-opacity="0.07" />
    <path d="M415.111 223.056V145.778H337.833V223.056H415.111Z" fill="#003399" fill-opacity="0.07" />
    <path
        d="M110.344 68.5H1134.34M109.966 145.778H337.833M1133.97 145.778H878.556M109.588 223.056H337.833M1133.59 223.056H878.556M109.211 300.333H337.833M1133.21 300.333H878.556M108.833 377.611H337.833M1132.83 377.611H878.556M108.455 454.889H337.833M1132.46 454.889H878.556M108.078 532.167H337.833M1132.08 532.167H878.556M107.7 609.444H415.111M1131.7 609.444H878.556M107.322 686.722H337.833M1131.32 686.722H878.556M106.944 764H1130.94M106 794.503V40.5562M183.278 794.781V40.8342M260.556 795.059V41.1123M337.833 795.337V686.722M337.833 41.3904V145.778M415.111 795.615V686.722M415.111 41.6685V145.778M492.389 795.893V686.722M492.389 41.9466V145.778M569.667 796.172V686.722M569.667 42.2246V145.778M646.944 796.45V609.444M646.944 42.5027V145.778M569.444 793.947V609.444M569.444 40V145.778M646.722 794.225V686.722M646.722 40.2781V223.056M724 794.503V609.444M724 40.5562V145.778M801.278 794.781V686.722M801.278 40.8342V145.778M878.556 795.059V686.722M878.556 41.1123V145.778M955.833 795.337V41.3904M1033.11 795.615V41.6685M1110.39 795.893V41.9466M724 532.167V454.889M724 532.167H646.944M724 532.167V609.444M724 532.167H801.278M724 454.889V377.611M724 454.889H646.944M724 454.889H801.278M724 377.611V300.333M724 377.611H646.944M724 377.611H801.278M724 300.333V223.056M724 300.333H646.944M724 300.333H801.278M724 223.056V145.778M724 223.056H646.722M724 223.056H801.278M724 145.778H646.944M724 145.778H801.278M646.944 145.778L646.722 223.056M646.944 145.778V300.333M646.944 145.778H569.667M646.722 223.056H569.444M646.722 223.056V532.167M646.944 300.333V377.611M646.944 300.333H569.444M646.944 377.611V454.889M646.944 377.611H569.667M646.944 454.889V532.167M646.944 454.889H569.444M646.944 532.167V609.444M646.944 532.167H646.722M646.944 609.444L646.722 686.722M646.944 609.444H724M646.944 609.444H646.722M646.722 686.722H724M646.722 686.722H569.667M646.722 686.722V609.444M724 609.444H801.278M724 609.444L724 686.722M801.278 609.444V532.167M801.278 609.444H878.556M801.278 609.444V686.722M801.278 532.167V454.889M801.278 532.167H878.556M801.278 454.889V377.611M801.278 454.889H878.556M801.278 377.611V300.333M801.278 377.611H878.556M801.278 300.333V223.056M801.278 300.333H878.556M801.278 223.056V145.778M801.278 223.056H878.556M801.278 145.778H878.556M878.556 145.778V223.056M878.556 223.056V300.333M878.556 300.333V377.611M878.556 377.611V454.889M878.556 454.889V532.167M878.556 532.167V609.444M878.556 609.444V686.722M878.556 686.722H801.278M801.278 686.722H724M724 686.722H569.667M569.667 686.722H492.389M569.667 686.722V609.444M569.444 609.444L569.667 532.167M569.444 609.444V454.889M569.444 609.444H492.389M569.444 609.444H569.667M569.667 532.167V377.611M569.667 532.167H492.389M569.667 532.167H646.722M569.667 532.167V609.444M569.444 454.889L569.667 377.611M569.444 454.889H492.389M569.444 454.889V377.611M569.667 377.611V145.778M569.667 377.611H569.444M569.444 300.333V223.056M569.444 300.333H492.389M569.444 300.333V377.611M569.444 223.056L569.667 145.778M569.444 223.056H492.389M569.444 223.056V145.778M569.667 145.778H569.444M492.389 145.778V223.056M492.389 145.778H415.111M492.389 145.778H569.444M492.389 223.056V300.333M492.389 223.056H415.111M492.389 300.333V377.611M492.389 300.333H415.111M492.389 377.611V454.889M492.389 377.611H415.111M492.389 377.611H569.444M492.389 454.889V532.167M492.389 454.889H415.111M492.389 532.167V609.444M492.389 532.167H415.111M492.389 609.444V686.722M492.389 609.444H415.111M492.389 686.722H415.111M415.111 686.722V609.444M415.111 686.722H337.833M415.111 609.444V532.167M415.111 609.444H337.833M415.111 532.167V454.889M415.111 532.167H337.833M415.111 454.889V377.611M415.111 454.889H337.833M415.111 377.611V300.333M415.111 377.611H337.833M415.111 300.333V223.056M415.111 300.333H337.833M415.111 223.056V145.778M415.111 223.056H337.833M415.111 145.778H337.833M337.833 145.778V223.056M337.833 223.056V300.333M337.833 300.333V377.611M337.833 377.611V454.889M337.833 454.889V532.167M337.833 532.167V609.444M337.833 686.722V609.444M646.722 609.444V532.167M646.722 609.444H569.667"
        stroke="url(#paint1_radial_54_182)" stroke-opacity="0.15" />
    <defs>
        <linearGradient id="paint0_linear_54_182" x1="835.149" y1="128" x2="587.704" y2="848.915"
            gradientUnits="userSpaceOnUse">
            <stop stop-color="#E9F0FF" />
            <stop offset="1" stop-color="#F5FFFC" />
        </linearGradient>
        <radialGradient id="paint1_radial_54_182" cx="0" cy="0" r="1" gradientUnits="userSpaceOnUse"
            gradientTransform="translate(631.444 418) scale(678.556 922.452)">
            <stop stop-color="#003399" />
            <stop offset="1" stop-color="#003399" stop-opacity="0" />
        </radialGradient>
    </defs>
</svg>