<svg width="26" height="26" viewBox="0 0 26 26" fill="none" xmlns="http://www.w3.org/2000/svg">
    <path
        d="M0.89801 13.531C1.01201 6.95725 5.61326 2.27725 11.2458 1.51975C17.965 0.6205 23.617 5.191 24.703 11.254C25.7343 17.0042 22.5738 22.387 17.3628 24.52C16.9135 24.703 16.6675 24.6017 16.4958 24.145L13.906 17.4183C13.7583 17.023 13.8588 16.777 14.2458 16.6022C15.418 16.0705 16.1478 15.1802 16.3435 13.9022C16.6518 11.9222 15.2185 10.0945 13.2228 9.922C11.4055 9.74575 9.76601 11.0118 9.47276 12.8118C9.21851 14.41 10.0075 15.898 11.4955 16.5737C11.9605 16.7845 12.0543 16.9915 11.8743 17.4647L9.27251 24.238C9.14726 24.5702 8.87426 24.688 8.52251 24.5507C5.77676 23.4767 3.52226 21.4255 2.19476 18.793C0.98801 16.4102 0.97676 14.5472 0.89801 13.5272V13.531ZM1.90976 13.438C1.93001 13.7582 1.94051 14.1287 1.97276 14.5082C2.27651 17.9882 4.37051 21.4532 8.31176 23.371C8.46851 23.4407 8.52701 23.41 8.58551 23.2622C9.30476 21.367 10.0308 19.4732 10.7613 17.578C10.8235 17.422 10.792 17.3477 10.6473 17.2577C9.11651 16.2925 8.35451 14.9095 8.44001 13.0938C8.48726 12.0505 8.89001 11.1325 9.59276 10.3668C11.0418 8.785 13.3188 8.44075 15.1825 9.5155C16.7215 10.4058 17.5803 12.1285 17.3695 13.8948C17.1933 15.3708 16.4365 16.504 15.1548 17.2698C15.0258 17.3477 14.9868 17.41 15.046 17.5615C15.7803 19.4605 16.5108 21.3587 17.233 23.2577C17.2923 23.41 17.3508 23.4408 17.503 23.3665C19.2258 22.5655 20.659 21.4172 21.769 19.8865C23.452 17.5502 24.1473 14.9523 23.815 12.0933C23.155 6.40525 18.0378 1.6945 11.4483 2.5075C6.31526 3.13675 1.99526 7.46875 1.90901 13.4373L1.90976 13.438Z"
        fill="white" stroke="white" />
</svg>