<svg width="41" height="40" viewBox="0 0 41 40" fill="none" xmlns="http://www.w3.org/2000/svg">
    <rect x="0.5" width="40" height="40" rx="20" fill="url(#paint0_linear_64_251)" />
    <path
        d="M17.534 13.963L14.991 16.5C14.524 16.966 14.095 17.393 13.756 17.78C13.5266 18.0351 13.3195 18.3095 13.137 18.6L13.113 18.575L13.018 18.481C12.575 18.053 12.0553 17.7124 11.486 17.477L11.363 17.427L10.984 17.277C10.866 17.2305 10.7614 17.1553 10.6797 17.0582C10.598 16.9611 10.5418 16.8453 10.5161 16.721C10.4904 16.5968 10.496 16.4681 10.5325 16.3466C10.569 16.2251 10.6351 16.1145 10.725 16.025C11.845 14.907 13.19 13.566 13.84 13.297C14.4046 13.0612 15.0223 12.9821 15.628 13.068C16.174 13.149 16.69 13.43 17.534 13.963ZM21.877 27.313C22.082 27.521 22.217 27.668 22.341 27.825C22.503 28.0323 22.6477 28.2517 22.775 28.483C22.917 28.743 23.028 29.02 23.249 29.575C23.2924 29.68 23.361 29.7726 23.4488 29.8447C23.5365 29.9168 23.6407 29.9661 23.7521 29.9882C23.8635 30.0104 23.9786 30.0047 24.0873 29.9717C24.196 29.9387 24.2948 29.8794 24.375 29.799L24.459 29.716C25.579 28.599 26.924 27.258 27.194 26.611C27.4312 26.0489 27.5104 25.4328 27.423 24.829C27.342 24.284 27.061 23.769 26.526 22.927L23.974 25.471C23.496 25.948 23.058 26.385 22.661 26.727C22.424 26.933 22.164 27.137 21.877 27.313Z"
        fill="white" />
    <path fill-rule="evenodd" clip-rule="evenodd"
        d="M22.9469 24.377L28.7939 18.547C29.6359 17.708 30.0569 17.288 30.2779 16.755C30.4989 16.222 30.4999 15.627 30.4999 14.44V13.873C30.4999 12.047 30.4999 11.134 29.9309 10.567C29.3619 10 28.4469 10 26.6159 10H26.0459C24.8559 10 24.2609 10 23.7259 10.221C23.1899 10.442 22.7689 10.862 21.9259 11.701L16.0799 17.531C15.0959 18.511 14.4859 19.12 14.2499 19.707C14.1768 19.8854 14.1388 20.0762 14.1379 20.269C14.1379 21.071 14.7849 21.717 16.0799 23.008L16.2539 23.181L18.2919 21.112C18.3611 21.0418 18.4434 20.9859 18.5341 20.9475C18.6248 20.9091 18.7223 20.889 18.8208 20.8883C18.9193 20.8875 19.017 20.9062 19.1083 20.9432C19.1996 20.9802 19.2827 21.0349 19.3529 21.104C19.4231 21.1731 19.479 21.2554 19.5174 21.3462C19.5558 21.4369 19.5759 21.5343 19.5767 21.6328C19.5774 21.7314 19.5588 21.8291 19.5217 21.9204C19.4847 22.0117 19.4301 22.0948 19.3609 22.165L17.3159 24.24L17.4529 24.377C18.7479 25.667 19.3959 26.313 20.1999 26.313C20.3779 26.313 20.5479 26.282 20.7189 26.219C21.3219 25.997 21.9379 25.383 22.9469 24.377ZM25.6939 17.531C25.3292 17.8944 24.8353 18.0984 24.3204 18.0984C23.8056 18.0984 23.3117 17.8944 22.9469 17.531C22.7664 17.3516 22.6232 17.1383 22.5254 16.9034C22.4277 16.6684 22.3774 16.4165 22.3774 16.162C22.3774 15.9075 22.4277 15.6556 22.5254 15.4206C22.6232 15.1857 22.7664 14.9724 22.9469 14.793C23.3117 14.4296 23.8056 14.2256 24.3204 14.2256C24.8353 14.2256 25.3292 14.4296 25.6939 14.793C25.8744 14.9724 26.0177 15.1857 26.1154 15.4206C26.2132 15.6556 26.2635 15.9075 26.2635 16.162C26.2635 16.4165 26.2132 16.6684 26.1154 16.9034C26.0177 17.1383 25.8744 17.3516 25.6939 17.531Z"
        fill="white" />
    <defs>
        <linearGradient id="paint0_linear_64_251" x1="20.5" y1="20" x2="16.75" y2="65.5"
            gradientUnits="userSpaceOnUse">
            <stop stop-color="#003399" />
            <stop offset="1" stop-color="white" />
        </linearGradient>
    </defs>
</svg>