<svg width="40" height="40" viewBox="0 0 40 40" fill="none" xmlns="http://www.w3.org/2000/svg">
<path fill-rule="evenodd" clip-rule="evenodd" d="M20.0433 3.3335C10.8616 3.3335 3.41998 10.7752 3.41998 19.9568C3.41998 27.3002 8.18165 33.5318 14.7883 35.7318C15.62 35.8818 15.92 35.3702 15.92 34.9302C15.92 34.5352 15.9066 33.4885 15.9016 32.1035C11.2766 33.1068 10.3 29.8735 10.3 29.8735C9.54665 27.9535 8.45498 27.4418 8.45498 27.4418C6.94665 26.4102 8.56998 26.4335 8.56998 26.4335C10.24 26.5502 11.115 28.1468 11.115 28.1468C12.5983 30.6868 15.0083 29.9535 15.9516 29.5285C16.1033 28.4535 16.5366 27.7202 17.01 27.3052C13.32 26.8868 9.43998 25.4602 9.43998 19.0885C9.43998 17.2768 10.0883 15.7902 11.1466 14.6302C10.9783 14.2085 10.4033 12.5168 11.3116 10.2302C11.3116 10.2302 12.7066 9.78183 15.8816 11.9318C17.2376 11.5629 18.6364 11.3747 20.0416 11.3718C21.447 11.3741 22.8458 11.5624 24.2016 11.9318C27.3783 9.78016 28.7717 10.2302 28.7717 10.2302C29.68 12.5168 29.11 14.2085 28.9366 14.6302C30.0033 15.7902 30.6433 17.2752 30.6433 19.0885C30.6433 25.4768 26.76 26.8802 23.0566 27.2918C23.6483 27.8052 24.1816 28.8185 24.1816 30.3685C24.1816 32.5918 24.1616 34.3852 24.1616 34.9302C24.1616 35.3752 24.4583 35.8918 25.3066 35.7285C31.91 33.5252 36.6666 27.2985 36.6666 19.9568C36.6666 10.7752 29.225 3.3335 20.0433 3.3335Z" fill="#003399"/>
</svg>
