<svg width="40" height="40" viewBox="0 0 40 40" fill="none" xmlns="http://www.w3.org/2000/svg">
<path d="M33.3333 5H6.66667C6.22464 5 5.80072 5.17559 5.48816 5.48816C5.17559 5.80072 5 6.22464 5 6.66667V33.3333C5 33.7754 5.17559 34.1993 5.48816 34.5118C5.80072 34.8244 6.22464 35 6.66667 35H33.3333C33.7754 35 34.1993 34.8244 34.5118 34.5118C34.8244 34.1993 35 33.7754 35 33.3333V6.66667C35 6.22464 34.8244 5.80072 34.5118 5.48816C34.1993 5.17559 33.7754 5 33.3333 5ZM13.8983 30.5617H9.445V16.245H13.8983V30.5617ZM11.6717 14.29C10.9874 14.29 10.3312 14.0182 9.84733 13.5343C9.36349 13.0505 9.09167 12.3943 9.09167 11.71C9.09167 11.0257 9.36349 10.3695 9.84733 9.88566C10.3312 9.40182 10.9874 9.13 11.6717 9.13C12.3559 9.13 13.0122 9.40182 13.496 9.88566C13.9798 10.3695 14.2517 11.0257 14.2517 11.71C14.2517 12.3943 13.9798 13.0505 13.496 13.5343C13.0122 14.0182 12.3559 14.29 11.6717 14.29ZM30.5633 30.5617H26.115V23.6C26.115 21.94 26.085 19.805 23.8017 19.805C21.485 19.805 21.1333 21.615 21.1333 23.4833V30.5633H16.6883V16.2467H20.955V18.2033H21.0167C21.6083 17.0783 23.0617 15.8917 25.2233 15.8917C29.73 15.8917 30.5617 18.855 30.5617 22.7117V30.5617H30.5633Z" fill="#003399"/>
</svg>
